<svg xmlns="http://www.w3.org/2000/svg" width="483.045891539648" height="207.0196678027063" viewBox="0 0 630.0 270.0">
<g transform="translate(-1370 -1050) scale(3)">
<path d="m 0,0 v 7.17 c 0,0 -7.108,4.021 -7.733,11.879 -0.211,2.663 -0.329,18.22 -0.329,18.22 0,0 3.883,-0.044 6.544,-4.411 0,0 -0.084,-10.94 0.041,-11.452 0.124,-0.507 0.674,-6.617 7.936,-8.693 V 0 Z" style="fill:#00529c" transform="matrix(1.3333333,0,0,-1.3333333,485.48693,423.63373)"/>
<path d="m 0,0 c 0,0 -0.177,-5.864 0,-7.433 0.184,-1.571 1.75,-4.977 6.367,-6.813 v 6.261 c 0,0 -0.746,5.409 -6.367,7.985" style="fill:#00529c" transform="matrix(1.3333333,0,0,-1.3333333,485.60547,385.75613)"/>
<path d="m 0,0 c -0.184,1.572 -3.072,5.148 -6.367,6.325 l 0.005,2.668 C -2.19,7.39 0.002,4.385 0.002,4.385 Z" style="fill:#00529c" transform="matrix(1.3333333,0,0,-1.3333333,494.12373,392.48667)"/>
<path d="m 0,0 v 7.17 c 0,0 7.108,4.021 7.736,11.879 0.206,2.663 0.327,18.22 0.327,18.22 0,0 -3.881,-0.044 -6.543,-4.411 0,0 0.084,-10.94 -0.041,-11.452 C 1.393,21.061 1.112,18.127 -1.342,15.629 -2.497,14.455 -4.134,13.375 -6.459,12.713 V 0 Z" style="fill:#00529c" transform="matrix(1.3333333,0,0,-1.3333333,504.13667,423.63373)"/>
<path d="m 0,0 c 0,0 0.176,-5.864 0,-7.433 -0.183,-1.571 -1.749,-4.977 -6.368,-6.813 v 6.261 c 0,0 0.747,5.409 6.368,7.985" style="fill:#00529c" transform="matrix(1.3333333,0,0,-1.3333333,504.00267,385.75613)"/>
<path d="M 0,0 C 0.181,1.572 3.068,5.148 6.363,6.325 L 6.357,8.993 C 2.188,7.39 -0.005,4.385 -0.005,4.385 Z" style="fill:#00529c" transform="matrix(1.3333333,0,0,-1.3333333,495.48827,392.48667)"/>
<path d="M 0,0 C 0,15.196 12.321,27.513 27.519,27.515 42.713,27.513 55.033,15.196 55.033,0 c 0,-15.197 -12.32,-27.514 -27.514,-27.516 v 1.086 1.086 C 41.513,-25.318 52.836,-13.996 52.86,0 52.836,13.994 41.513,25.317 27.519,25.342 13.52,25.317 2.198,13.994 2.173,0 2.198,-13.996 13.52,-25.318 27.519,-25.344 v -1.086 -1.086 C 12.321,-27.514 0,-15.197 0,0" style="fill:#00529c" transform="matrix(1.3333333,0,0,-1.3333333,458.11333,396.85253)"/>
<path d="m 0,0 v 0.775 c 0.675,0 1.068,0.221 1.376,0.637 C 1.63,1.797 1.741,2.654 1.741,3.98 V 8.873 L -2.3,15.756 c -0.758,1.298 -1.347,1.767 -2.329,1.906 v 0.774 h 9.934 v -0.774 c -0.42,0 -0.73,-0.111 -0.954,-0.331 -0.225,-0.194 -0.336,-0.471 -0.336,-0.829 0,-0.416 0.224,-0.939 0.589,-1.576 l 2.02,-3.344 1.74,2.958 c 0.563,0.966 0.842,1.629 0.842,2.071 0,0.664 -0.393,0.94 -1.207,1.051 v 0.774 h 6.344 V 17.662 C 13.753,17.469 13.247,17.166 12.77,16.723 12.294,16.279 11.815,15.699 11.255,14.788 L 7.522,8.9 V 3.98 C 7.522,2.683 7.633,1.853 7.888,1.439 8.14,1.051 8.588,0.831 9.291,0.775 V 0 Z" style="fill:#00529c" transform="matrix(1.3333333,0,0,-1.3333333,545.98173,398.55307)"/>
<path d="m 0,0 c 1.601,-0.139 2.89,-0.58 4.014,-1.328 l -2.05,6.635 z m 0.056,6.936 0.11,0.416 0.059,0.386 c 0,0.416 -0.197,0.609 -0.758,0.912 V 9.424 H 7.996 V 8.65 C 7.551,8.512 7.241,8.18 7.241,7.821 c 0,-0.137 0,-0.276 0.027,-0.359 l 0.14,-0.526 4.266,-12.409 c 0.422,-1.188 0.758,-1.935 1.067,-2.239 0.253,-0.332 0.703,-0.524 1.149,-0.524 V -9.012 H 4.323 v 0.776 c 1.01,0.136 1.429,0.664 1.429,1.549 0,1.187 -0.617,2.238 -1.851,3.15 -0.646,0.471 -1.318,0.828 -2.077,1.077 -0.813,0.302 -1.658,0.442 -2.582,0.442 l -1.095,-3.041 c -0.196,-0.634 -0.418,-1.436 -0.418,-1.877 0,-0.416 0.11,-0.748 0.363,-0.97 0.252,-0.221 0.617,-0.33 1.094,-0.33 v -0.776 h -6.343 v 0.776 c 0.617,0.109 1.122,0.359 1.517,0.773 0.391,0.414 0.841,1.327 1.374,2.682 z" style="fill:#00529c" transform="matrix(1.3333333,0,0,-1.3333333,569.74093,386.53733)"/>
<path d="m 446.383,294.791 h 5.389 v -1.492 h -5.389 z m 2.61,1.188 c -0.981,0 -2.134,0.112 -3.423,0.332 -1.262,0.222 -2.02,0.332 -2.247,0.332 -0.362,0 -0.616,0.028 -1.571,-0.581 l -0.477,7.793 0.757,0.03 c 0.563,-3.621 2.864,-5.667 6.372,-5.667 2.359,0 3.732,0.913 3.732,2.46 0,1.105 -1.037,1.99 -3.115,2.625 l -0.533,0.166 -2.244,0.718 c -3.173,1.023 -4.659,2.627 -4.659,5.252 0,1.741 0.645,3.153 1.908,4.174 1.289,1.049 3.03,1.574 5.221,1.574 0.784,0 1.795,-0.083 3.057,-0.277 1.262,-0.191 2.106,-0.274 2.583,-0.274 0.673,0.055 0.84,0.165 1.319,0.44 l 0.589,-5.857 -0.786,-0.112 c -1.321,2.516 -3.229,3.899 -5.275,3.899 -1.544,0 -2.609,-0.804 -2.609,-1.936 0,-0.469 0.167,-0.857 0.476,-1.161 0.336,-0.276 1.007,-0.581 1.993,-0.911 l 2.356,-0.721 c 2.274,-0.689 3.789,-1.463 4.575,-2.293 0.786,-0.8 1.178,-1.906 1.178,-3.289 0,-1.988 -0.815,-3.62 -2.469,-4.864 -0.757,-0.581 -1.572,-1.022 -2.441,-1.325 -0.955,-0.332 -2.218,-0.498 -3.788,-0.527 z" style="fill:#00529c" transform="matrix(1.3333333,0,0,-1.3333333,0,793.70667)"/>
<path d="M 0,0 C 1.599,-0.139 2.89,-0.58 4.012,-1.328 L 1.963,5.307 Z m 0.057,6.936 0.11,0.416 0.057,0.386 c 0,0.416 -0.198,0.609 -0.758,0.912 V 9.424 H 7.997 V 8.65 C 7.549,8.512 7.239,8.18 7.239,7.821 c 0,-0.137 0,-0.276 0.029,-0.359 L 7.41,6.936 11.673,-5.473 c 0.422,-1.188 0.76,-1.935 1.064,-2.239 0.255,-0.332 0.705,-0.524 1.154,-0.524 v -0.776 h -9.57 v 0.776 c 1.012,0.136 1.432,0.664 1.432,1.549 0,1.187 -0.619,2.238 -1.852,3.15 -0.647,0.471 -1.321,0.828 -2.077,1.077 -0.814,0.302 -1.657,0.442 -2.582,0.442 l -1.096,-3.041 c -0.195,-0.634 -0.419,-1.436 -0.419,-1.877 0,-0.416 0.112,-0.748 0.365,-0.97 0.252,-0.221 0.616,-0.33 1.093,-0.33 v -0.776 h -6.341 v 0.776 c 0.616,0.109 1.122,0.359 1.514,0.773 0.394,0.414 0.841,1.327 1.375,2.682 z" style="fill:#00529c" transform="matrix(1.3333333,0,0,-1.3333333,618.52347,386.53733)"/>
<path d="m 0,0 c 2.777,0.58 4.378,2.072 4.378,3.979 0,1.41 -0.729,2.017 -2.441,2.017 C 0.479,5.996 0,5.83 0,4.477 Z m -7.13,-10.615 v 0.775 c 0.533,0.082 0.869,0.276 1.067,0.608 0.198,0.332 0.281,1.078 0.281,2.238 V 4.199 c 0,1.133 -0.083,1.881 -0.281,2.185 -0.198,0.332 -0.534,0.552 -1.067,0.663 V 7.82 H 6.033 c 2.724,0 4.07,-0.939 4.07,-2.957 0,-1.769 -0.984,-3.012 -3.791,-4.697 1.49,-1.66 2.781,-3.76 4.239,-7.297 l 0.056,-0.11 c 0.646,-1.632 1.349,-2.489 2.106,-2.599 v -0.775 H 3.985 v 0.775 c 0.336,0.166 0.588,0.33 0.755,0.471 0.141,0.166 0.198,0.386 0.198,0.662 0,0.719 -0.365,1.77 -1.093,3.15 -0.73,1.383 -1.657,2.655 -2.781,3.786 L 0,-2.102 V -6.994 C 0,-8.127 0.083,-8.873 0.28,-9.232 0.479,-9.535 0.812,-9.758 1.346,-9.84 v -0.775 z" style="fill:#00529c" transform="matrix(1.3333333,0,0,-1.3333333,647.21613,384.39933)"/>
<path d="m 0,0 0.015,-0.135 c 0,-0.517 0.029,-1 0.07,-1.547 0,-2.189 -1.317,-3.23 -4.106,-3.23 -2.649,0 -3.713,0.814 -3.713,2.844 l 0.013,0.533 c 0,0.174 0,0.334 0.014,0.494 l 0.142,3.377 v 0.187 c 0,0.52 -0.057,0.854 -0.183,1.028 -0.112,0.16 -0.338,0.252 -0.674,0.252 v 0.375 h 4.694 V 3.803 C -4.092,3.764 -4.355,3.604 -4.513,3.336 -4.68,3.029 -4.763,2.551 -4.763,1.801 l -0.071,-2.76 v -0.15 -0.12 c -0.014,-0.066 -0.014,-0.105 -0.014,-0.132 v -0.547 c 0,-1.281 0.588,-1.897 1.864,-1.897 1.332,0 1.892,0.668 1.892,2.364 v 0.332 l -0.014,0.228 -0.126,2.242 c 0,0.909 -0.126,1.522 -0.338,1.895 -0.167,0.307 -0.461,0.494 -0.868,0.547 V 4.178 H 0.883 V 3.803 C 0.224,3.75 -0.152,3.297 -0.152,2.643 V 2.336 c 0,-0.107 0,-0.188 0.011,-0.254 z" style="fill:#00529c" transform="matrix(1.3333333,0,0,-1.3333333,553.4844,410.514)"/>
<path d="M 0,0 C 0,0.547 -0.043,0.906 -0.141,1.053 -0.239,1.215 -0.407,1.32 -0.674,1.373 V 1.748 H 4.583 V 1.373 C 4.371,1.309 4.261,1.16 4.261,1.014 4.261,0.947 4.271,0.906 4.33,0.787 4.371,0.707 4.442,0.627 4.512,0.547 L 6.317,-1.361 V 0 c 0,0.547 -0.04,0.906 -0.138,1.053 C 6.081,1.215 5.913,1.32 5.647,1.373 V 1.748 H 8.198 V 1.373 C 7.933,1.334 7.763,1.24 7.666,1.066 7.566,0.92 7.524,0.561 7.524,0 v -5.406 c 0,-0.547 0.042,-0.908 0.142,-1.082 0.097,-0.145 0.267,-0.252 0.532,-0.293 V -7.154 H 5.452 v 0.373 c 0.321,0 0.529,0.066 0.686,0.215 0.127,0.146 0.179,0.425 0.179,0.867 v 0.306 L 1.192,0.08 v -5.314 c 0,-0.625 0.055,-1.026 0.18,-1.211 0.126,-0.188 0.352,-0.295 0.702,-0.336 v -0.373 h -2.748 v 0.373 c 0.267,0.041 0.435,0.133 0.533,0.293 C -0.043,-6.326 0,-5.965 0,-5.406 Z" style="fill:#00529c" transform="matrix(1.3333333,0,0,-1.3333333,557.27867,407.2744)"/>
<path d="M 0,0 V 0.373 C 0.266,0.414 0.436,0.506 0.533,0.666 0.63,0.828 0.674,1.189 0.674,1.748 V 7.154 C 0.674,7.701 0.63,8.061 0.533,8.207 0.436,8.369 0.266,8.475 0,8.527 V 8.902 H 4.233 V 8.527 C 3.966,8.488 3.799,8.395 3.7,8.221 3.602,8.074 3.561,7.715 3.561,7.154 V 1.748 C 3.561,1.201 3.602,0.84 3.7,0.666 3.799,0.521 3.966,0.414 4.233,0.373 V 0 Z" style="fill:#00529c" transform="matrix(1.3333333,0,0,-1.3333333,570.4648,416.81347)"/>
<path d="m 0,0 v -0.375 c -0.476,-0.104 -0.881,-0.6 -1.203,-1.48 L -1.344,-2.229 -3.321,-7.514 -3.457,-7.9 c -0.031,-0.094 -0.045,-0.163 -0.045,-0.215 0,-0.174 0.143,-0.36 0.364,-0.414 v -0.373 h -3.629 v 0.373 c 0.267,0.054 0.434,0.226 0.434,0.455 0,0.08 -0.041,0.238 -0.124,0.467 l -0.098,0.265 -1.964,5.674 C -8.84,-0.709 -9.066,-0.467 -9.5,-0.375 V 0 h 4.444 v -0.375 c -0.393,-0.104 -0.575,-0.32 -0.575,-0.641 0,-0.08 0.027,-0.211 0.069,-0.398 0.056,-0.174 0.099,-0.389 0.197,-0.654 l 1.317,-3.899 1.372,3.938 0.212,0.679 0.071,0.364 c 0,0.359 -0.169,0.507 -0.659,0.611 l 0,0.375 z" style="fill:#00529c" transform="matrix(1.3333333,0,0,-1.3333333,590.27213,404.9436)"/>
<path d="M 0,0 V 0.373 C 0.265,0.414 0.434,0.506 0.531,0.666 0.629,0.828 0.672,1.189 0.672,1.748 V 7.154 C 0.672,7.701 0.629,8.061 0.531,8.207 0.434,8.369 0.265,8.475 0,8.527 v 0.375 h 6.445 c 0.391,0 0.644,0.067 0.799,0.266 L 8.03,6.098 7.665,6.045 C 7.384,6.674 6.979,7.168 6.445,7.5 5.928,7.834 5.309,7.994 4.527,7.994 3.796,7.994 3.558,7.807 3.558,6.941 V 6.02 h 0.784 c 0.493,0 0.827,0.066 0.981,0.212 0.169,0.147 0.281,0.414 0.338,0.815 H 5.94 L 6.543,3.645 6.262,3.578 C 5.914,4.711 5.38,5.098 4.272,5.098 H 3.558 V 2.162 c 0,-0.519 0.086,-0.853 0.253,-1.027 0.168,-0.16 0.49,-0.24 0.966,-0.24 1.514,0 2.678,0.841 3.616,2.656 L 8.759,3.482 7.565,-0.146 C 7.396,-0.041 7.215,0 6.824,0 Z" style="fill:#00529c" transform="matrix(1.3333333,0,0,-1.3333333,591.65493,416.81347)"/>
<path d="M 0,0 C 1.387,0.279 2.189,1.002 2.189,1.922 2.189,2.604 1.823,2.896 0.97,2.896 0.24,2.896 0,2.816 0,2.162 Z m -3.558,-5.125 v 0.373 c 0.267,0.041 0.436,0.133 0.532,0.293 0.098,0.162 0.142,0.523 0.142,1.082 v 5.406 c 0,0.547 -0.044,0.907 -0.142,1.053 -0.096,0.162 -0.265,0.268 -0.532,0.32 V 3.777 H 3.013 C 4.375,3.777 5.047,3.322 5.047,2.35 5.047,1.494 4.556,0.895 3.155,0.08 3.898,-0.719 4.542,-1.734 5.271,-3.443 L 5.299,-3.498 C 5.621,-4.285 5.97,-4.697 6.35,-4.752 V -5.125 H 1.992 v 0.373 c 0.167,0.08 0.293,0.16 0.379,0.227 0.071,0.082 0.098,0.187 0.098,0.32 0,0.348 -0.184,0.853 -0.548,1.521 -0.365,0.668 -0.827,1.282 -1.387,1.83 L 0,-1.014 V -3.377 C 0,-3.924 0.043,-4.285 0.143,-4.459 0.24,-4.604 0.407,-4.711 0.675,-4.752 v -0.373 z" style="fill:#00529c" transform="matrix(1.3333333,0,0,-1.3333333,609.7656,409.98013)"/>
<path d="m 0,0 c 1.136,-0.334 1.892,-0.707 2.284,-1.107 0.394,-0.387 0.587,-0.922 0.587,-1.588 0,-0.961 -0.405,-1.748 -1.232,-2.348 -0.827,-0.602 -1.907,-0.896 -3.267,-0.896 -0.545,0 -1.148,0.052 -1.794,0.16 -0.627,0.107 -1.006,0.16 -1.12,0.16 -0.181,0 -0.308,0.014 -0.784,-0.279 l -0.238,3.761 0.378,0.014 c 0.28,-1.748 1.428,-2.734 3.182,-2.734 1.177,0 1.863,0.441 1.863,1.185 0,0.537 -0.517,0.963 -1.556,1.27 l -0.267,0.08 -1.12,0.347 c -1.584,0.495 -2.325,1.268 -2.325,2.536 0,0.841 0.323,1.521 0.951,2.015 0.645,0.508 1.515,0.762 2.608,0.762 0.391,0 0.897,-0.041 1.528,-0.135 C 0.307,3.109 0.73,3.07 0.967,3.07 1.303,3.098 1.387,3.15 1.625,3.285 L 1.92,0.455 1.527,0.4 c -0.658,1.215 -1.613,1.883 -2.635,1.883 -0.77,0 -1.303,-0.388 -1.303,-0.935 0,-0.227 0.085,-0.414 0.238,-0.561 0.169,-0.135 0.505,-0.279 0.995,-0.441 z" style="fill:#00529c" transform="matrix(1.3333333,0,0,-1.3333333,626.79427,409.14413)"/>
<path d="m 0,0 v 0.373 c 0.267,0.041 0.436,0.133 0.534,0.293 0.098,0.162 0.138,0.523 0.138,1.082 v 5.406 c 0,0.547 -0.04,0.907 -0.138,1.053 C 0.436,8.369 0.267,8.475 0,8.527 V 8.902 H 4.232 V 8.527 C 3.967,8.488 3.798,8.395 3.7,8.221 3.601,8.074 3.56,7.715 3.56,7.154 V 1.748 C 3.56,1.201 3.601,0.84 3.7,0.666 3.798,0.521 3.967,0.414 4.232,0.373 V 0 Z" style="fill:#00529c" transform="matrix(1.3333333,0,0,-1.3333333,632.444,416.81347)"/>
<path d="m 0,0 v 0.373 c 0.644,0 0.884,0.293 0.884,1.547 V 7.834 H 0.703 c -1.277,0 -2.092,-0.641 -2.523,-1.936 l -0.393,0.069 0.646,3.082 C -1.4,8.943 -1.22,8.902 -0.937,8.902 h 6.515 c 0.21,0 0.379,-0.013 0.632,0.147 L 6.867,5.967 6.475,5.898 C 6.067,7.182 5.229,7.834 3.953,7.834 H 3.772 V 1.92 C 3.772,1.295 3.825,0.895 3.953,0.693 4.077,0.48 4.304,0.373 4.64,0.373 V 0 Z" style="fill:#00529c" transform="matrix(1.3333333,0,0,-1.3333333,642.2812,416.81347)"/>
<path d="m 0,0 v 0.373 c 0.338,0 0.533,0.107 0.688,0.309 0.126,0.185 0.181,0.599 0.181,1.238 v 2.363 l -2.017,3.324 c -0.377,0.627 -0.673,0.856 -1.164,0.92 V 8.902 H 2.649 V 8.527 C 2.439,8.527 2.285,8.475 2.173,8.369 2.061,8.275 2.006,8.141 2.006,7.969 2.006,7.768 2.118,7.514 2.299,7.207 l 1.01,-1.615 0.866,1.429 c 0.283,0.467 0.424,0.786 0.424,1 0,0.319 -0.199,0.454 -0.606,0.506 V 8.902 H 7.162 V 8.527 C 6.867,8.436 6.614,8.287 6.376,8.074 6.138,7.861 5.899,7.582 5.618,7.141 L 3.755,4.299 V 1.92 C 3.755,1.295 3.814,0.895 3.938,0.693 4.064,0.506 4.291,0.4 4.639,0.373 V 0 Z" style="fill:#00529c" transform="matrix(1.3333333,0,0,-1.3333333,654.8568,416.81347)"/>
</g>
</svg>